<?xml version="1.0" standalone="no"?>
<!DOCTYPE svg PUBLIC "-//W3C//DTD SVG 20010904//EN"
 "http://www.w3.org/TR/2001/REC-SVG-20010904/DTD/svg10.dtd">
<svg version="1.0" xmlns="http://www.w3.org/2000/svg"
 width="260.000000pt" height="260.000000pt" viewBox="0 0 260.000000 260.000000"
 preserveAspectRatio="xMidYMid meet">
<metadata>
Created by potrace 1.14, written by Peter Selinger 2001-2017
</metadata>
<g transform="translate(0.000000,260.000000) scale(0.100000,-0.100000)"
fill="#000000" stroke="none">
<path d="M1333 1895 c-496 -94 -930 -263 -1085 -422 -79 -81 -86 -127 -30
-183 97 -97 399 -125 809 -74 l53 6 116 202 c64 110 154 265 200 343 46 78 84
144 84 147 0 8 -11 7 -147 -19z m-765 -351 c32 -22 30 -76 -3 -102 -30 -24
-30 -30 -5 -62 27 -34 25 -40 -13 -40 -29 0 -36 5 -52 38 -10 20 -19 33 -20
27 -2 -5 -6 -22 -9 -37 -5 -23 -12 -28 -36 -28 -26 0 -30 3 -26 23 3 12 10 56
16 97 6 41 13 81 15 88 6 18 105 16 133 -4z m202 -9 c0 -22 -4 -25 -35 -25
-19 0 -35 -2 -35 -4 0 -2 -3 -11 -6 -20 -5 -13 1 -16 29 -16 31 0 34 -2 29
-25 -4 -21 -10 -25 -38 -25 -24 0 -34 -5 -34 -15 0 -10 10 -15 28 -15 35 0 41
-6 35 -31 -5 -16 -14 -19 -70 -19 l-65 0 5 28 c3 15 11 64 17 110 l12 82 64 0
c62 0 64 -1 64 -25z m143 -34 l9 -54 25 57 c24 52 28 56 59 56 l34 0 0 -64 c0
-35 3 -84 6 -110 l7 -46 -32 0 -31 0 -1 63 -1 62 -30 -62 c-21 -45 -35 -63
-49 -63 -19 0 -21 4 -37 85 l-9 40 -18 -62 c-17 -59 -19 -63 -47 -63 -20 0
-29 4 -26 13 3 6 18 56 34 110 l29 98 35 -3 c34 -3 35 -4 43 -57z"/>
<path d="M486 1498 c-9 -36 -7 -40 16 -36 26 3 37 36 16 49 -20 13 -25 11 -32
-13z"/>
<path d="M1907 1866 c-75 -27 -117 -91 -117 -178 0 -101 60 -158 167 -158 34
0 64 3 66 8 2 4 7 23 11 43 l6 36 -55 -5 c-48 -4 -59 -1 -80 18 -35 33 -35
101 -1 135 34 34 70 40 117 22 43 -17 43 -17 53 39 5 29 2 32 -33 43 -49 14
-87 13 -134 -3z"/>
<path d="M1526 1858 c-7 -22 -46 -282 -46 -300 0 -14 9 -18 39 -18 42 0 44 2
56 73 5 34 9 37 38 37 18 0 49 5 70 11 87 24 105 153 28 194 -38 19 -180 21
-185 3z m144 -78 c8 -15 6 -24 -10 -40 -20 -20 -55 -27 -63 -12 -3 4 -2 22 0
40 5 27 9 32 34 32 18 0 32 -7 39 -20z"/>
<path d="M1600 1015 c-18 -22 -8 -50 19 -50 32 0 49 28 32 49 -17 20 -35 20
-51 1z"/>
<path d="M222 924 c-43 -30 -22 -86 38 -99 37 -8 40 -35 4 -35 -14 0 -34 4
-44 10 -14 8 -19 5 -24 -12 -6 -25 5 -35 52 -44 43 -8 91 12 98 42 9 37 -2 54
-46 71 -57 23 -41 48 20 32 9 -2 16 4 18 17 2 15 -4 23 -20 28 -39 10 -72 7
-96 -10z"/>
<path d="M559 911 c-60 -60 -27 -157 56 -167 41 -5 85 11 92 33 6 17 -32 25
-61 12 -28 -13 -56 1 -56 27 0 11 17 14 70 14 39 0 70 4 70 9 0 29 -26 74 -51
86 -45 24 -87 19 -120 -14z m99 -33 c3 -15 -4 -18 -32 -18 -34 0 -47 15 -29
34 13 13 58 1 61 -16z"/>
<path d="M997 920 c-22 -18 -27 -19 -27 -6 0 11 -9 16 -30 16 l-30 0 0 -90 0
-90 35 0 35 0 0 53 c0 58 12 77 47 77 16 0 23 6 23 20 0 11 0 23 1 28 1 16
-29 12 -54 -8z"/>
<path d="M1888 925 c-36 -20 -53 -74 -38 -121 22 -65 121 -87 133 -28 4 22 2
25 -16 20 -32 -8 -57 11 -57 43 0 34 22 55 51 48 17 -5 20 -1 17 21 -2 22 -9
27 -33 29 -16 2 -42 -4 -57 -12z"/>
<path d="M2199 912 c-61 -54 -33 -153 46 -168 34 -6 105 17 105 35 0 17 -38
23 -59 9 -24 -15 -54 -2 -59 26 -3 13 7 16 62 16 64 0 66 1 66 26 0 15 -12 38
-29 55 -40 39 -89 40 -132 1z m99 -34 c3 -15 -4 -18 -32 -18 -34 0 -47 15 -29
34 13 13 58 1 61 -16z"/>
<path d="M1210 925 c0 -3 17 -44 37 -91 32 -74 39 -84 62 -84 23 0 31 11 68
91 l42 90 -36 -3 c-33 -3 -38 -7 -51 -45 -7 -24 -17 -43 -21 -43 -3 0 -13 19
-21 43 -13 36 -19 42 -47 45 -18 2 -33 0 -33 -3z"/>
<path d="M1590 840 l0 -90 29 0 30 0 3 90 3 90 -32 0 -33 0 0 -90z"/>
</g>
</svg>
